<svg xmlns="http://www.w3.org/2000/svg" version="1.1" xmlns:xlink="http://www.w3.org/1999/xlink" xmlns:svgjs="http://svgjs.dev/svgjs" width="1000" height="1000" viewBox="0 0 1000 1000"><rect width="1000" height="1000" fill="#000000"></rect><g transform="matrix(0.7,0,0,0.7,149.57575757575756,378.0025327791243)"><svg viewBox="0 0 396 138" data-background-color="#ffffff" preserveAspectRatio="xMidYMid meet" height="348" width="1000" xmlns="http://www.w3.org/2000/svg" xmlns:xlink="http://www.w3.org/1999/xlink"><g id="tight-bounds" transform="matrix(1,0,0,1,0.2400000000000091,0.11186566699853984)"><svg viewBox="0 0 395.52 137.77626866600292" height="137.77626866600292" width="395.52"><g><svg viewBox="0 0 395.52 137.77626866600292" height="137.77626866600292" width="395.52"><g transform="matrix(1,0,0,1,0,85.1512613453587)"><svg viewBox="0 0 395.52 52.62500732064421" height="52.62500732064421" width="395.52"><g id="textblocktransform"><svg viewBox="0 0 395.52 52.62500732064421" height="52.62500732064421" width="395.52" id="textblock"><g><svg viewBox="0 0 395.52 52.62500732064421" height="52.62500732064421" width="395.52"><g transform="matrix(1,0,0,1,0,0)"><svg width="395.52" viewBox="1.65 -35.25 273.18 36.35108695652174" height="52.62500732064421" data-palette-color="#ff851b"><path d="M14.15 1.05Q11.15 1.05 8.5-0.1 5.85-1.25 4.03-3.3 2.2-5.35 1.65-7.95L1.65-7.95 5.35-9.5Q6.15-6.35 8.7-4.55 11.25-2.75 14.15-2.75L14.15-2.75Q17.25-2.75 19.4-4.67 21.55-6.6 21.55-9.7L21.55-9.7Q21.55-11.85 20.3-13.25 19.05-14.65 15.9-16.15L15.9-16.15Q11.9-18.1 9.83-19.33 7.75-20.55 6.38-22.38 5-24.2 5-26.75L5-26.75Q5-29.2 6.33-31.13 7.65-33.05 9.88-34.13 12.1-35.2 14.65-35.2L14.65-35.2Q16.8-35.2 18.68-34.33 20.55-33.45 21.68-32 22.8-30.55 22.8-28.9L22.8-28.9Q22.8-28.65 22.7-28.05L22.7-28.05 18.8-28.3Q19-29.1 18.38-29.83 17.75-30.55 16.65-30.98 15.55-31.4 14.55-31.4L14.55-31.4Q12.35-31.4 10.73-30.08 9.1-28.75 9.1-26.9L9.1-26.9Q9.1-25.4 10.18-24.2 11.25-23 12.7-22.13 14.15-21.25 16.45-20.1L16.45-20.1 18.25-19.2Q22.2-17.05 23.93-14.9 25.65-12.75 25.65-9.65L25.65-9.65Q25.65-6.55 24.08-4.1 22.5-1.65 19.85-0.3 17.2 1.05 14.15 1.05L14.15 1.05ZM32.7 0.05L32.7-34.3 36.8-34.3 36.8-19.75 53.55-19.75 53.55-34.3 57.65-34.3 57.65 0.05 53.55 0.05 53.55-15.85 36.8-15.85 36.8 0.05 32.7 0.05ZM82.55 1.1Q77.59 1.05 73.67-1.23 69.75-3.5 67.52-7.43 65.3-11.35 65.3-16.3L65.3-16.3 65.3-17.75Q65.3-22.5 67.57-26.48 69.84-30.45 73.77-32.77 77.7-35.1 82.34-35.1L82.34-35.1Q87.05-35.1 90.95-32.77 94.84-30.45 97.15-26.48 99.45-22.5 99.45-17.75L99.45-17.75 99.45-16.3Q99.45-11.35 97.22-7.35 95-3.35 91.15-1.1 87.3 1.15 82.55 1.1L82.55 1.1ZM82.4-2.7Q86.05-2.7 89-4.48 91.95-6.25 93.65-9.35 95.34-12.45 95.34-16.3L95.34-16.3 95.34-17.75Q95.34-21.4 93.59-24.53 91.84-27.65 88.87-29.48 85.9-31.3 82.3-31.3L82.3-31.3Q78.75-31.3 75.8-29.48 72.84-27.65 71.12-24.53 69.4-21.4 69.4-17.75L69.4-17.75 69.4-16.3Q69.4-12.45 71.09-9.35 72.8-6.25 75.77-4.48 78.75-2.7 82.4-2.7L82.4-2.7ZM107.09 0.05L107.09-34.3 129.49-34.3 129.49-30.5 111.09-30.5 111.09-20.05 124.64-20.05 124.64-16.25 111.09-16.25 111.09-3.75 130.44-3.75 130.44 0.05 107.09 0.05ZM145.59 0.05L145.59-30.5 134.24-30.5 134.24-34.3 161.04-34.3 161.04-30.5 149.69-30.5 149.69 0.05 145.59 0.05ZM181.24 1.1Q176.29 1.05 172.36-1.23 168.44-3.5 166.21-7.43 163.99-11.35 163.99-16.3L163.99-16.3 163.99-17.75Q163.99-22.5 166.26-26.48 168.54-30.45 172.46-32.77 176.39-35.1 181.04-35.1L181.04-35.1Q185.74-35.1 189.64-32.77 193.54-30.45 195.84-26.48 198.14-22.5 198.14-17.75L198.14-17.75 198.14-16.3Q198.14-11.35 195.91-7.35 193.69-3.35 189.84-1.1 185.99 1.15 181.24 1.1L181.24 1.1ZM181.09-2.7Q184.74-2.7 187.69-4.48 190.64-6.25 192.34-9.35 194.04-12.45 194.04-16.3L194.04-16.3 194.04-17.75Q194.04-21.4 192.29-24.53 190.54-27.65 187.56-29.48 184.59-31.3 180.99-31.3L180.99-31.3Q177.44-31.3 174.49-29.48 171.54-27.65 169.81-24.53 168.09-21.4 168.09-17.75L168.09-17.75 168.09-16.3Q168.09-12.45 169.79-9.35 171.49-6.25 174.46-4.48 177.44-2.7 181.09-2.7L181.09-2.7ZM216.19-34.3Q219.13-34.3 221.41-32.9 223.69-31.5 224.94-29 226.19-26.5 226.19-23.35L226.19-23.35Q226.19-18.2 222.78-15.25 219.38-12.3 212.84-12.3L212.84-12.3 209.13-12.4 209.13 0.05 205.03 0.05 205.03-34.3 216.19-34.3ZM213.44-16.1Q217.69-16.1 219.88-18.03 222.09-19.95 222.09-23.5L222.09-23.5Q222.09-26.8 220.28-28.65 218.49-30.5 215.53-30.5L215.53-30.5 209.13-30.5 209.13-16.25 210.88-16.2Q212.78-16.1 213.44-16.1L213.44-16.1ZM233.33 0.05L233.33-34.3 237.43-34.3 237.43 0.05 233.33 0.05ZM243.78 0.05L258.43-35.25 260.08-35.25 274.83 0.05 270.48 0.05 265.78-11 252.73-11 248.13 0.05 243.78 0.05ZM264.18-14.7L259.93-25.4 259.53-26.7 259.23-27.85 258.88-26.75 258.48-25.4 254.28-14.7 264.18-14.7Z" opacity="1" transform="matrix(1,0,0,1,0,0)" fill="#ffffff" class="wordmark-text-0" data-fill-palette-color="primary" id="text-0"></path></svg></g></svg></g></svg></g></svg></g><g transform="matrix(1,0,0,1,116.43243034884296,0)"><svg viewBox="0 0 162.65513930231407 72.7277601171303" height="72.7277601171303" width="162.65513930231407"><g><svg xmlns:x="http://ns.adobe.com/Extensibility/1.0/" xmlns:i="http://ns.adobe.com/AdobeIllustrator/10.0/" xmlns:graph="http://ns.adobe.com/Graphs/1.0/" xmlns="http://www.w3.org/2000/svg" xmlns:xlink="http://www.w3.org/1999/xlink" xmlns:a="http://ns.adobe.com/AdobeSVGViewerExtensions/3.0/" version="1.0" x="8" y="0" viewBox="0.25627715513402366 20.812430277266596 99.73006867094655 49.457145145209964" enable-background="new 0 0 100 100" xml:space="preserve" height="72.7277601171303" width="146.65513930231407" class="icon-icon-0" data-fill-palette-color="accent" id="icon-0"><g fill="#ff851b" data-fill-palette-color="accent"><path d="M71.195 52.306c-2.174-0.433-4.279-0.899-6.307-1.396L54.771 62.654c2.594-0.043 5.166-0.121 7.705-0.229L71.195 52.306 71.195 52.306zM51.107 46.592c-1.946-0.778-3.752-1.593-5.406-2.442L30.684 61.576c2.289 0.266 4.604 0.485 6.945 0.658L51.107 46.592 51.107 46.592zM60.814 49.84c-2.07-0.582-4.051-1.197-5.922-1.844L42.379 62.518c2.432 0.111 4.887 0.169 7.362 0.173L60.814 49.84 60.814 49.84zM98.689 59.938l0.109 0.255c0.021 0.045 0.039 0.089 0.057 0.134 1.043 2.632-2.801 3.865-4.652 4.735-9.861 4.64-30.873 5.229-41.375 5.207-2.983-0.006-6.354-0.128-9.262-0.854-0.154-0.039-0.772-0.163-0.767-0.311-0.032-1.098-0.713-2.304-1.838-2.58-2.278-0.559-4.91 0.878-6.846 1.946-2.193 1.208-6.259 1.52-8.758 1.52-6.913 0-13.896-0.82-20.714-1.925-1.045-0.169-3.218-0.608-3.96-1.441-0.791-0.886-0.354-5.193 0.274-6.254C1.5 59.457 2.2 58.519 2.609 57.532c-0.349-1.695-0.725-3.438-0.906-5.16C1.45 49.977 6.987 37.176 8.005 34.547 6 32.988 8.093 32.532 8.562 32.341c2.146-0.872 5.397-1.542 7.277 0.209 2.99 2.787 4.427 6.269 9.286 6.168 1.66-0.035 6.124-0.311 7.688-1.048-1.036-0.932-2.632-2.668-1.613-4.117 0.784-1.114 10.769-13.466 13.659-12.707 2.34 0.615 7.052 12.259 7.907 13.173 0.328 0.075 16.486 14.446 24.688 14.967 0.346 0.021 4.4 0.155 5.021 0.173 3.844 0.117 8.311 0.433 12.02 1.441 1.111 0.301 2.408 0.609 3.42 1.179C100.986 53.506 100.109 57.42 98.689 59.938L98.689 59.938z" fill="#ffffff" data-fill-palette-color="accent"></path></g></svg></g></svg></g><g><rect width="116.43243034884296" height="4.74577746918325" y="66.98198264794705" x="279.087569651157" fill="#ffffff" data-fill-palette-color="accent"></rect><rect width="116.43243034884296" height="4.74577746918325" y="66.98198264794705" x="0" fill="#ffffff" data-fill-palette-color="accent"></rect><rect width="116.43243034884296" height="4.74577746918325" y="57.49042770958055" x="279.087569651157" fill="#ffffff" data-fill-palette-color="accent"></rect><rect width="116.43243034884296" height="4.74577746918325" y="57.49042770958055" x="0" fill="#ffffff" data-fill-palette-color="accent"></rect></g></svg></g><defs></defs></svg><rect width="395.52" height="137.77626866600292" fill="none" stroke="none" visibility="hidden"></rect></g></svg></g></svg>